<svg width="26" height="24" viewBox="0 0 26 24" fill="none" xmlns="http://www.w3.org/2000/svg">
<path d="M17.5146 3C15.7443 3 14.0451 3.81 12.9361 5.09C11.8271 3.81 10.128 3 8.35765 3C5.22393 3 2.76172 5.42 2.76172 8.5C2.76172 12.28 6.22102 15.36 11.4608 20.04L12.9361 21.35L14.4114 20.03C19.6513 15.36 23.1106 12.28 23.1106 8.5C23.1106 5.42 20.6483 3 17.5146 3ZM13.0379 18.55L12.9361 18.65L12.8344 18.55C7.99137 14.24 4.7966 11.39 4.7966 8.5C4.7966 6.5 6.32277 5 8.35765 5C9.92451 5 11.4507 5.99 11.9899 7.36H13.8925C14.4216 5.99 15.9478 5 17.5146 5C19.5495 5 21.0757 6.5 21.0757 8.5C21.0757 11.39 17.8809 14.24 13.0379 18.55Z" fill="black" fill-opacity="0.6"/>
</svg>
