<svg width="540" height="276" viewBox="0 0 540 276" fill="none" xmlns="http://www.w3.org/2000/svg">
<g clip-path="url(#clip0)">
<path d="M373.603 243.035L367.317 252.924L370.978 240.05C363.247 231.979 352.544 226.074 352.544 226.074C352.544 226.074 339.365 247.746 342.912 261.077C346.459 274.408 355.619 276.952 365.389 274.35C375.16 271.747 381.842 264.983 378.295 251.652C377.506 248.684 375.791 245.772 373.603 243.035Z" fill="#F2F2F2"/>
<path d="M365.285 253.909L365.46 254.566C367.453 262.215 367.752 268.517 366.342 273.386C366.323 273.458 366.299 273.527 366.28 273.598L365.951 273.501L365.636 273.404C367.233 268.126 366.52 261.456 364.784 254.785C364.73 254.569 364.675 254.35 364.614 254.133C363.853 251.316 362.922 248.509 361.908 245.811C361.832 245.601 361.751 245.389 361.67 245.177C360.314 241.623 358.831 238.277 357.458 235.393C357.362 235.188 357.262 234.985 357.164 234.785C354.819 229.912 352.832 226.46 352.385 225.697C352.333 225.603 352.302 225.553 352.295 225.54L352.58 225.37L352.583 225.366L352.872 225.195C352.878 225.207 352.983 225.378 353.166 225.699C353.856 226.894 355.691 230.15 357.806 234.527C357.9 234.724 357.999 234.928 358.095 235.132C359.212 237.472 360.397 240.103 361.523 242.897C361.807 243.598 362.079 244.292 362.338 244.979C362.422 245.19 362.503 245.402 362.579 245.611C363.676 248.527 364.578 251.293 365.285 253.909Z" fill="white"/>
<path d="M357.806 234.527C357.596 234.614 357.383 234.702 357.164 234.785C356.572 235.01 355.968 235.204 355.356 235.367C352.747 236.066 350.014 236.17 347.359 235.672C347.269 235.881 347.178 236.09 347.085 236.303C349.885 236.853 352.773 236.755 355.529 236.018C356.183 235.844 356.827 235.635 357.458 235.393C357.673 235.311 357.887 235.223 358.096 235.132C359.825 234.395 361.433 233.4 362.864 232.18C362.676 232.038 362.493 231.899 362.314 231.762C360.955 232.901 359.436 233.832 357.806 234.527Z" fill="white"/>
<path d="M362.338 244.979C362.117 245.051 361.895 245.118 361.67 245.177C361.603 245.199 361.532 245.218 361.463 245.236C358.635 245.99 355.667 246.047 352.812 245.405C349.956 244.763 347.298 243.439 345.065 241.547C344.986 241.773 344.907 242 344.832 242.229C347.141 244.13 349.87 245.454 352.792 246.09C355.715 246.726 358.746 246.656 361.636 245.887C361.727 245.862 361.818 245.838 361.909 245.811C362.135 245.747 362.358 245.681 362.58 245.611C366.004 244.508 369.038 242.443 371.319 239.66C371.164 239.496 371.009 239.332 370.851 239.168C368.639 241.893 365.68 243.912 362.338 244.979Z" fill="white"/>
<path d="M365.285 253.909C365.063 253.989 364.839 254.063 364.614 254.133C364.373 254.208 364.13 254.28 363.887 254.345C360.085 255.352 356.06 255.101 352.413 253.629C348.766 252.156 345.694 249.541 343.657 246.175C343.581 246.478 343.504 246.777 343.434 247.078C345.604 250.399 348.765 252.951 352.468 254.373C356.17 255.794 360.226 256.012 364.06 254.995C364.304 254.93 364.547 254.862 364.784 254.785C365.013 254.717 365.237 254.643 365.46 254.566C369.961 252.982 373.693 249.746 375.898 245.512C375.766 245.29 375.625 245.073 375.483 244.853C373.39 249.084 369.732 252.332 365.285 253.909Z" fill="white"/>
<path d="M341.214 17.8395L334.928 27.7282L338.589 14.8549C330.858 6.78348 320.155 0.878906 320.155 0.878906C320.155 0.878906 306.976 22.5504 310.523 35.8813C314.07 49.2122 323.229 51.757 333 49.1543C342.771 46.5517 349.453 39.7872 345.906 26.4564C345.116 23.4892 343.401 20.5762 341.214 17.8395Z" fill="#F2F2F2"/>
<path d="M332.897 28.714L333.071 29.3711C335.065 37.0195 335.363 43.3219 333.953 48.1911C333.934 48.2624 333.911 48.3314 333.891 48.4027L333.563 48.3057L333.248 48.2084C334.844 42.9305 334.132 36.2612 332.395 29.5896C332.341 29.3741 332.286 29.1553 332.225 28.9382C331.465 26.1204 330.533 23.3135 329.52 20.6156C329.443 20.4061 329.362 20.1942 329.282 19.9823C327.925 16.4281 326.443 13.0817 325.069 10.1973C324.973 9.99301 324.874 9.78958 324.775 9.58939C322.431 4.71689 320.443 1.26462 319.997 0.502231C319.944 0.408308 319.913 0.357352 319.906 0.345213L320.192 0.175104L320.194 0.170981L320.483 0C320.49 0.0121551 320.594 0.182861 320.777 0.503429C321.468 1.69893 323.302 4.95511 325.417 9.3314C325.511 9.5292 325.611 9.73265 325.707 9.93694C326.824 12.2765 328.008 14.9081 329.134 17.7015C329.418 18.4027 329.69 19.0967 329.949 19.7835C330.033 19.9945 330.114 20.2064 330.191 20.4159C331.287 23.3322 332.189 26.0983 332.897 28.714Z" fill="white"/>
<path d="M325.417 9.33138C325.207 9.41871 324.994 9.50686 324.776 9.58937C324.183 9.81439 323.58 10.0089 322.967 10.1721C320.358 10.8708 317.625 10.9749 314.971 10.4768C314.88 10.6855 314.789 10.8943 314.696 11.1072C317.496 11.6573 320.384 11.56 323.14 10.8227C323.794 10.6484 324.438 10.4396 325.07 10.1973C325.285 10.1156 325.498 10.0274 325.707 9.93689C327.437 9.19989 329.044 8.20438 330.475 6.9844C330.287 6.84272 330.104 6.70343 329.925 6.56653C328.567 7.7052 327.048 8.63688 325.417 9.33138V9.33138Z" fill="white"/>
<path d="M329.949 19.7835C329.728 19.8562 329.506 19.9225 329.281 19.9823C329.214 20.0037 329.142 20.0228 329.074 20.0409C326.246 20.7943 323.278 20.8523 320.422 20.2099C317.567 19.5675 314.909 18.2437 312.676 16.3516C312.597 16.5781 312.518 16.8047 312.443 17.0337C314.752 18.9351 317.481 20.2587 320.403 20.8948C323.325 21.5309 326.357 21.4612 329.247 20.6915C329.338 20.6673 329.429 20.643 329.52 20.6155C329.746 20.5517 329.969 20.4854 330.191 20.4159C333.615 19.3133 336.649 17.2473 338.93 14.465C338.775 14.3008 338.62 14.1366 338.462 13.9733C336.25 16.6975 333.291 18.7167 329.949 19.7835V19.7835Z" fill="white"/>
<path d="M332.897 28.714C332.674 28.7941 332.45 28.8678 332.225 28.9382C331.984 29.0129 331.742 29.0843 331.498 29.1493C327.696 30.1572 323.671 29.906 320.024 28.4333C316.377 26.9606 313.305 24.3456 311.268 20.9799C311.192 21.2824 311.115 21.5816 311.045 21.8823C313.215 25.2036 316.376 27.7562 320.079 29.1775C323.782 30.5988 327.838 30.8166 331.671 29.7999C331.915 29.7349 332.158 29.6667 332.395 29.5896C332.624 29.5216 332.848 29.448 333.071 29.3711C337.573 27.7868 341.304 24.5503 343.51 20.3169C343.377 20.0943 343.236 19.8776 343.094 19.6577C341.001 23.8883 337.343 27.1368 332.897 28.714V28.714Z" fill="white"/>
<path d="M168.343 259.634L156.63 259.687L169.434 255.811C172.043 244.94 171.223 232.739 171.223 232.739C171.223 232.739 145.876 233.359 136.584 243.55C127.291 253.742 130.102 262.827 137.572 269.646C145.041 276.464 154.341 278.432 163.634 268.241C165.702 265.973 167.225 262.954 168.343 259.634Z" fill="#F2F2F2"/>
<path d="M154.703 258.51L154.245 259.012C148.891 264.824 143.753 268.482 138.896 269.927C138.826 269.95 138.755 269.967 138.685 269.989L138.589 269.66L138.5 269.343C143.802 267.834 149.025 263.629 153.696 258.561C153.848 258.399 154.002 258.235 154.152 258.066C156.11 255.903 157.967 253.602 159.688 251.29C159.823 251.112 159.957 250.93 160.092 250.747C162.347 247.684 164.36 244.628 166.043 241.913C166.163 241.721 166.28 241.528 166.395 241.337C169.225 236.729 171.054 233.19 171.454 232.402C171.504 232.307 171.53 232.253 171.537 232.241L171.834 232.39L171.839 232.389L172.139 232.54C172.132 232.552 172.045 232.733 171.874 233.06C171.242 234.287 169.496 237.591 166.959 241.737C166.844 241.924 166.726 242.117 166.606 242.309C165.243 244.513 163.67 246.933 161.93 249.39C161.494 250.009 161.057 250.612 160.62 251.202C160.488 251.387 160.353 251.569 160.218 251.747C158.359 254.246 156.52 256.501 154.703 258.51Z" fill="white"/>
<path d="M166.959 241.737C166.772 241.607 166.583 241.476 166.395 241.336C165.886 240.959 165.396 240.556 164.928 240.129C162.93 238.31 161.365 236.066 160.349 233.562C160.125 233.599 159.9 233.635 159.671 233.672C160.722 236.326 162.364 238.705 164.474 240.626C164.974 241.082 165.498 241.512 166.043 241.913C166.228 242.049 166.417 242.181 166.607 242.308C168.161 243.366 169.867 244.181 171.666 244.726C171.684 244.492 171.702 244.262 171.72 244.037C170.029 243.509 168.424 242.734 166.959 241.737Z" fill="white"/>
<path d="M160.62 251.202C160.439 251.055 160.263 250.904 160.092 250.747C160.037 250.702 159.983 250.652 159.93 250.605C157.768 248.631 156.115 246.164 155.112 243.413C154.109 240.662 153.785 237.709 154.169 234.806C153.936 234.862 153.703 234.918 153.47 234.979C153.119 237.951 153.481 240.963 154.526 243.767C155.57 246.571 157.268 249.085 159.477 251.102C159.546 251.165 159.616 251.229 159.688 251.29C159.864 251.446 160.04 251.598 160.219 251.747C162.996 254.033 166.374 255.471 169.946 255.887C170.001 255.668 170.055 255.449 170.107 255.227C166.62 254.838 163.323 253.439 160.62 251.202V251.202Z" fill="white"/>
<path d="M154.704 258.51C154.516 258.366 154.333 258.217 154.152 258.066C153.959 257.903 153.768 257.738 153.582 257.568C150.679 254.913 148.715 251.388 147.982 247.522C147.249 243.657 147.788 239.657 149.517 236.123C149.221 236.223 148.928 236.319 148.637 236.423C147.017 240.045 146.579 244.086 147.386 247.971C148.192 251.856 150.201 255.388 153.128 258.065C153.314 258.235 153.503 258.403 153.696 258.561C153.877 258.717 154.06 258.866 154.246 259.012C158.011 261.945 162.749 263.337 167.501 262.905C167.617 262.673 167.722 262.437 167.831 262.199C163.142 262.724 158.433 261.401 154.704 258.51Z" fill="white"/>
<path d="M129.457 268.829L136.187 268.829L139.388 242.855L129.456 242.856L129.457 268.829Z" fill="#FFB6B6"/>
<path d="M127.74 266.631L140.994 266.63H140.995C143.235 266.63 145.383 267.521 146.967 269.106C148.551 270.69 149.441 272.84 149.441 275.081V275.356L127.741 275.357L127.74 266.631Z" fill="#2F2E41"/>
<path d="M76.2076 268.829L82.9379 268.829L86.1395 242.855L76.2065 242.856L76.2076 268.829Z" fill="#FFB6B6"/>
<path d="M74.4907 266.631L87.7449 266.63H87.7454C89.9855 266.63 92.1339 267.521 93.7179 269.106C95.3019 270.69 96.1918 272.84 96.192 275.081V275.356L74.4911 275.357L74.4907 266.631Z" fill="#2F2E41"/>
<path d="M87.6212 162.141L83.0852 166.318L77.9727 216.781L74.5312 256.963L84.9313 258.367L110.157 189.71L128.615 258.041L141.059 258.367L132.8 169.171L87.6212 162.141Z" fill="#2F2E41"/>
<path d="M109.542 87.5218C116.677 87.5218 122.462 81.734 122.462 74.5943C122.462 67.4547 116.677 61.6669 109.542 61.6669C102.406 61.6669 96.6211 67.4547 96.6211 74.5943C96.6211 81.734 102.406 87.5218 109.542 87.5218Z" fill="#FFB9B9"/>
<path d="M102.929 68.5917C102.929 68.5917 101.389 71.9271 107.551 70.5929C107.551 70.5929 109.861 71.9271 109.861 69.9259C109.861 69.9259 112.942 73.2612 113.712 71.26C114.482 69.2588 116.023 71.9271 116.023 71.9271L117.563 68.5917L119.104 70.593H124.495C124.495 70.593 126.035 57.2515 107.551 58.5856C89.066 59.9198 98.1595 81.058 98.1595 81.058C98.1595 81.058 98.3083 77.2637 99.8487 79.2649C101.389 81.2661 102.929 68.5917 102.929 68.5917Z" fill="#2F2E41"/>
<path d="M119.386 91.7409L101.167 90.5997L84.9313 94.9089L87.3923 136.769L83.0854 166.318C83.0854 166.318 106.715 180.77 133.537 169.396L130.989 162.69C130.989 162.69 130.902 152.427 128.75 150.418C126.598 148.409 126.769 131.845 126.769 131.845L134.768 101.065L119.386 91.7409Z" fill="#E4D4C9"/>
<path d="M89.2686 96.2299L84.9316 94.9088C84.9316 94.9088 78.177 95.1344 74.6649 102.822C71.1529 110.511 68.957 121.496 68.957 121.496L91.2635 122.303L89.2686 96.2299Z" fill="#E4D4C9"/>
<path d="M141.044 169.614L140.322 124.242L130.685 125.689L132.813 168.675C131.937 169.395 131.292 170.357 130.959 171.441C130.626 172.525 130.619 173.683 130.94 174.771C131.261 175.858 131.895 176.828 132.763 177.557C133.631 178.286 134.694 178.744 135.82 178.872C136.947 179.001 138.086 178.795 139.095 178.279C140.105 177.764 140.941 176.962 141.498 175.975C142.055 174.987 142.309 173.857 142.228 172.726C142.148 171.595 141.736 170.512 141.044 169.614V169.614Z" fill="#FFB9B9"/>
<path d="M129.343 105.018L134.768 101.065C134.768 101.065 145.192 109.222 145.227 127.168L130.685 130.697L122.462 118.864L129.343 105.018Z" fill="#E4D4C9"/>
<path d="M421.915 268.804L428.645 268.803L431.847 242.83L421.914 242.83L421.915 268.804Z" fill="#9E616A"/>
<path d="M420.198 266.605L433.452 266.604H433.453C435.693 266.604 437.841 267.495 439.425 269.08C441.009 270.664 441.899 272.814 441.9 275.055V275.33L420.199 275.331L420.198 266.605Z" fill="#2F2E41"/>
<path d="M382.08 263.077L388.497 265.108L399.379 241.31L389.909 238.313L382.08 263.077Z" fill="#9E616A"/>
<path d="M381.106 260.463L393.743 264.462L393.744 264.462C395.879 265.138 397.659 266.636 398.692 268.625C399.724 270.614 399.925 272.932 399.249 275.069L399.167 275.331L378.476 268.783L381.106 260.463Z" fill="#2F2E41"/>
<path d="M397.234 150.181L393.499 160.72L393.393 217.616L382.802 256.57L395.803 260.201L410.165 223.47L414.771 191.208L420.841 223.658L420.006 262.227H433.647L434.676 202.791C434.966 186.099 432.046 169.507 426.078 153.917V153.917L397.234 150.181Z" fill="#2F2E41"/>
<path d="M392.786 107.49H414.835L424.047 116.708L426.8 154.81L393.499 160.171L382.802 123.817L388.627 108.366L392.786 107.49Z" fill="#4E6E58"/>
<path d="M384.857 124.18L350.909 111.401L350.025 106.118L371.434 87.9926L378.56 93.3401L365.645 107.49L388.627 108.366L384.857 124.18Z" fill="#4E6E58"/>
<path d="M375.552 95.406C378.584 95.406 381.042 92.9469 381.042 89.9135C381.042 86.88 378.584 84.4209 375.552 84.4209C372.52 84.4209 370.062 86.88 370.062 89.9135C370.062 92.9469 372.52 95.406 375.552 95.406Z" fill="#9E616A"/>
<path d="M388.283 96.8329L390.764 85.6412C391.649 81.667 394.074 78.2067 397.507 76.0208C400.941 73.8349 405.101 73.1023 409.074 73.9838C413.047 74.8653 416.507 77.2889 418.695 80.7221C420.883 84.1552 421.619 88.317 420.742 92.2928L418.261 103.485C418.142 104.018 417.816 104.483 417.355 104.777C416.894 105.071 416.335 105.17 415.801 105.052L389.85 99.2942C389.317 99.1751 388.852 98.8491 388.558 98.3877C388.264 97.9263 388.166 97.3671 388.283 96.8329V96.8329Z" fill="#2F2E41"/>
<path d="M402.24 101.496C408.457 101.496 413.496 96.4541 413.496 90.2341C413.496 84.0141 408.457 78.9718 402.24 78.9718C396.024 78.9718 390.984 84.0141 390.984 90.2341C390.984 96.4541 396.024 101.496 402.24 101.496Z" fill="#9E616A"/>
<path d="M387.019 85.7498C387.72 82.6053 389.639 79.8674 392.354 78.1366C395.07 76.4058 398.361 75.8235 401.506 76.5174L403.743 77.0138C406.885 77.7149 409.622 79.6346 411.352 82.3518C413.082 85.0691 413.664 88.3619 412.97 91.5079L412.92 91.7317L408.193 90.6827L407.581 85.8071L406.258 90.2533L403.814 89.7112L403.506 87.2512L402.838 89.4946L386.97 85.9736L387.019 85.7498Z" fill="#2F2E41"/>
<path d="M398.385 102.508C398.23 102.158 398.177 101.772 398.231 101.393C398.286 101.014 398.447 100.658 398.695 100.366C402.065 96.3806 407.232 88.7806 403.966 82.6619L403.731 82.2222L416.522 85.0603L412.263 104.274L400.189 103.747C400.067 103.742 399.946 103.726 399.826 103.7C399.509 103.629 399.213 103.485 398.962 103.277C398.712 103.07 398.514 102.807 398.385 102.508V102.508Z" fill="#2F2E41"/>
<path d="M539.346 276H0.653698C0.48067 275.999 0.3149 275.93 0.192728 275.808C0.0705553 275.685 0.00195312 275.519 0.00195312 275.346C0.00195312 275.173 0.0705553 275.007 0.192728 274.884C0.3149 274.762 0.48067 274.693 0.653698 274.692H539.346C539.52 274.692 539.686 274.761 539.809 274.884C539.931 275.006 540 275.173 540 275.346C540 275.519 539.931 275.686 539.809 275.808C539.686 275.931 539.52 276 539.346 276Z" fill="#CACACA"/>
<path d="M272.263 114.092H98.0689C96.7465 114.092 95.4372 114.353 94.2155 114.859C92.9938 115.365 91.8838 116.107 90.9488 117.043C90.0137 117.978 89.272 119.089 88.766 120.311C88.26 121.534 87.9995 122.844 87.9995 124.167V166.083C87.9995 167.406 88.2599 168.716 88.766 169.939C89.272 171.161 90.0137 172.272 90.9487 173.207C91.8838 174.143 92.9938 174.885 94.2155 175.391C95.4371 175.897 96.7465 176.158 98.0689 176.158H100.626V183.731C100.626 184.19 100.762 184.64 101.017 185.022C101.272 185.404 101.635 185.702 102.059 185.877C102.483 186.053 102.95 186.099 103.401 186.01C103.851 185.92 104.265 185.699 104.59 185.374L113.801 176.158H272.263C273.585 176.158 274.894 175.897 276.116 175.391C277.338 174.885 278.448 174.143 279.383 173.207C280.318 172.272 281.059 171.161 281.565 169.939C282.071 168.716 282.332 167.406 282.332 166.083V124.167C282.332 122.844 282.071 121.534 281.565 120.311C281.059 119.089 280.318 117.978 279.383 117.043C278.448 116.107 277.338 115.365 276.116 114.859C274.894 114.353 273.585 114.092 272.263 114.092V114.092Z" fill="#E5E5E5"/>
<path d="M230.368 170.94H98.0687C96.7817 170.938 95.5478 170.426 94.6378 169.516C93.7277 168.605 93.2158 167.371 93.2144 166.083V124.167C93.2158 122.879 93.7277 121.645 94.6377 120.734C95.5477 119.824 96.7815 119.311 98.0684 119.31H272.262C273.549 119.311 274.783 119.824 275.693 120.734C276.603 121.645 277.115 122.879 277.116 124.167C277.102 136.568 272.173 148.456 263.409 157.225C254.645 165.994 242.762 170.926 230.368 170.94V170.94Z" fill="white"/>
<path d="M222.129 128.373H148.568C146.749 128.373 145.274 129.848 145.274 131.668V131.668C145.274 133.488 146.749 134.964 148.568 134.964H222.129C223.948 134.964 225.423 133.488 225.423 131.668C225.423 129.848 223.948 128.373 222.129 128.373Z" fill="#4E6E58"/>
<path d="M237.774 141.555H132.923C131.104 141.555 129.629 143.03 129.629 144.85V144.85C129.629 146.67 131.104 148.146 132.923 148.146H237.774C239.593 148.146 241.068 146.67 241.068 144.85C241.068 143.03 239.593 141.555 237.774 141.555Z" fill="#E6E6E6"/>
<path d="M237.774 154.737H132.923C131.104 154.737 129.629 156.212 129.629 158.032V158.032C129.629 159.853 131.104 161.328 132.923 161.328H237.774C239.593 161.328 241.068 159.853 241.068 158.032C241.068 156.212 239.593 154.737 237.774 154.737Z" fill="#E6E6E6"/>
<path d="M520.436 143.277H394.465C393.509 143.277 392.562 143.466 391.679 143.832C390.795 144.198 389.993 144.735 389.316 145.411C388.64 146.088 388.104 146.891 387.738 147.775C387.372 148.659 387.184 149.606 387.184 150.563V180.876C387.184 181.832 387.372 182.78 387.738 183.664C388.104 184.548 388.64 185.351 389.316 186.027C389.993 186.704 390.795 187.241 391.679 187.607C392.562 187.973 393.509 188.161 394.465 188.161H396.314V193.638C396.314 193.97 396.413 194.295 396.597 194.571C396.782 194.848 397.044 195.063 397.351 195.19C397.658 195.317 397.996 195.351 398.321 195.286C398.647 195.221 398.946 195.061 399.181 194.826L405.842 188.161H520.436C521.392 188.161 522.339 187.973 523.223 187.607C524.106 187.241 524.909 186.704 525.585 186.027C526.261 185.351 526.797 184.548 527.163 183.664C527.529 182.78 527.718 181.832 527.718 180.876V150.563C527.718 149.606 527.529 148.659 527.163 147.775C526.797 146.891 526.261 146.088 525.585 145.411C524.909 144.735 524.106 144.198 523.223 143.832C522.339 143.466 521.392 143.277 520.436 143.277V143.277Z" fill="#E6E6E6"/>
<path d="M520.436 184.464H394.465C393.515 184.463 392.603 184.085 391.931 183.412C391.258 182.739 390.88 181.827 390.879 180.876V150.563C390.88 149.612 391.258 148.7 391.931 148.027C392.603 147.354 393.515 146.976 394.465 146.975H490.14C499.123 146.985 507.736 150.56 514.087 156.916C520.439 163.271 524.012 171.888 524.022 180.876C524.021 181.827 523.643 182.739 522.971 183.412C522.298 184.085 521.387 184.463 520.436 184.464V184.464Z" fill="white"/>
<path d="M484.181 153.605H430.984C429.669 153.605 428.603 154.672 428.603 155.988C428.603 157.304 429.669 158.371 430.984 158.371H484.181C485.496 158.371 486.563 157.304 486.563 155.988C486.563 154.672 485.496 153.605 484.181 153.605Z" fill="#4E6E58"/>
<path d="M495.495 163.138H419.671C418.355 163.138 417.289 164.205 417.289 165.521C417.289 166.837 418.355 167.904 419.671 167.904H495.495C496.811 167.904 497.877 166.837 497.877 165.521C497.877 164.205 496.811 163.138 495.495 163.138Z" fill="#E6E6E6"/>
<path d="M495.495 172.671H419.671C418.355 172.671 417.289 173.738 417.289 175.054C417.289 176.37 418.355 177.437 419.671 177.437H495.495C496.811 177.437 497.877 176.37 497.877 175.054C497.877 173.738 496.811 172.671 495.495 172.671Z" fill="#E6E6E6"/>
<path d="M251.735 36.7217H377.706C378.662 36.7217 379.609 36.9101 380.493 37.2763C381.376 37.6424 382.179 38.1791 382.855 38.8556C383.531 39.5322 384.068 40.3353 384.434 41.2193C384.799 42.1032 384.988 43.0506 384.988 44.0074V74.3199C384.988 75.2767 384.799 76.2241 384.434 77.108C384.068 77.992 383.531 78.7951 382.855 79.4717C382.179 80.1482 381.376 80.6849 380.493 81.051C379.609 81.4172 378.662 81.6056 377.706 81.6056H375.857V87.0821C375.857 87.4144 375.759 87.7393 375.574 88.0156C375.389 88.2919 375.127 88.5072 374.82 88.6344C374.513 88.7615 374.176 88.7948 373.85 88.73C373.524 88.6651 373.225 88.5051 372.99 88.2701L366.329 81.6056H251.735C250.779 81.6056 249.832 81.4172 248.949 81.051C248.065 80.6849 247.263 80.1482 246.586 79.4717C245.91 78.7951 245.374 77.992 245.008 77.108C244.642 76.2241 244.454 75.2767 244.454 74.3199V44.0074C244.454 43.0506 244.642 42.1032 245.008 41.2193C245.374 40.3353 245.91 39.5322 246.586 38.8556C247.263 38.1791 248.065 37.6424 248.949 37.2763C249.832 36.9101 250.779 36.7217 251.735 36.7217V36.7217Z" fill="#E6E6E6"/>
<path d="M377.706 77.9081H282.032C273.049 77.898 264.436 74.3231 258.084 67.9677C251.732 61.6124 248.159 52.9955 248.149 44.0076C248.15 43.0562 248.528 42.1441 249.201 41.4713C249.873 40.7985 250.785 40.4201 251.735 40.4189H377.706C378.657 40.42 379.569 40.7984 380.241 41.4711C380.913 42.1439 381.291 43.056 381.292 44.0074V74.3197C381.291 75.2711 380.913 76.1832 380.241 76.8559C379.569 77.5287 378.657 77.9071 377.706 77.9081Z" fill="white"/>
<path d="M287.99 51.8154L341.186 51.8154C342.502 51.8154 343.568 50.7484 343.568 49.4322C343.568 48.116 342.502 47.049 341.186 47.049L287.99 47.049C286.674 47.049 285.608 48.116 285.608 49.4322C285.608 50.7484 286.674 51.8154 287.99 51.8154Z" fill="#4E6E58"/>
<path d="M276.676 61.3483L352.501 61.3483C353.816 61.3483 354.883 60.2813 354.883 58.965C354.883 57.6488 353.816 56.5818 352.501 56.5818L276.676 56.5818C275.36 56.5818 274.294 57.6488 274.294 58.965C274.294 60.2813 275.36 61.3483 276.676 61.3483Z" fill="#E6E6E6"/>
<path d="M276.676 70.8811L352.501 70.8811C353.816 70.8811 354.883 69.8141 354.883 68.4979C354.883 67.1817 353.816 66.1147 352.501 66.1147L276.676 66.1147C275.36 66.1147 274.294 67.1817 274.294 68.4979C274.294 69.8141 275.36 70.8811 276.676 70.8811Z" fill="#E6E6E6"/>
<path d="M106.561 113.257C106.561 111.727 105.953 110.26 104.873 109.179C103.792 108.097 102.325 107.49 100.797 107.49C99.2679 107.49 97.8018 108.097 96.7208 109.179C95.6399 110.26 95.0326 111.727 95.0326 113.257C95.0326 113.313 95.0393 113.368 95.0409 113.424L84.9315 123.539L85.7002 121.77L74.172 121.221L72.4903 133.399C72.343 134.524 72.5481 135.666 73.0774 136.668C73.6067 137.671 74.434 138.485 75.4451 138.997C76.4562 139.509 77.6013 139.694 78.7222 139.527C79.8431 139.36 80.8846 138.849 81.7028 138.065L101.63 118.957C102.999 118.758 104.251 118.072 105.156 117.025C106.061 115.979 106.56 114.641 106.561 113.257Z" fill="#FFB9B9"/>
<path d="M413.958 107.72L449.867 112.829L451.875 117.794L434.904 140.134L426.789 136.46L436.33 119.845L413.705 123.977L413.958 107.72Z" fill="#4E6E58"/>
<path d="M429.899 146.487C432.931 146.487 435.389 144.028 435.389 140.994C435.389 137.961 432.931 135.502 429.899 135.502C426.867 135.502 424.41 137.961 424.41 140.994C424.41 144.028 426.867 146.487 429.899 146.487Z" fill="#9E616A"/>
</g>
<defs>
<clipPath id="clip0">
<rect width="540" height="276" fill="white"/>
</clipPath>
</defs>
</svg>
