<svg width="540" height="266" viewBox="0 0 540 266" fill="none" xmlns="http://www.w3.org/2000/svg">
<g clip-path="url(#clip0)">
<path d="M539.933 262.469C543.68 265.868 387.584 265.868 391.342 262.468C387.596 259.07 543.691 259.07 539.933 262.469Z" fill="#E6E6E6"/>
<path d="M488.121 163.253C496.382 174.935 498.565 241.422 499.051 262.735C499.064 263.215 499.076 263.67 499.082 264.101H519.994C520.25 263.645 520.487 263.196 520.711 262.735C533.107 238.26 526.229 208.915 525.868 207.43C526.809 212.096 522.551 225.618 517.737 238.716C514.801 198.443 489.692 165.286 488.121 163.253Z" fill="#DBC9E4"/>
<path d="M95.3236 33.2976C78.9521 56.448 74.6275 188.206 73.6637 230.44C73.639 231.392 73.6143 232.294 73.6019 233.147H32.1604C31.6537 232.245 31.1842 231.355 30.7394 230.44C6.17594 181.94 19.8045 123.786 20.5211 120.844C18.6554 130.089 27.0944 156.886 36.6332 182.842C42.4528 103.033 92.2099 37.327 95.3236 33.2976Z" fill="#DBC9E4"/>
<path d="M287.837 231.784C295.092 240.155 -7.14708 240.155 0.129319 231.782C-7.12509 223.412 295.114 223.412 287.837 231.784Z" fill="#DBC9E4"/>
<path d="M443.911 227.094C442.75 227.094 442.726 230.713 443.911 230.713H487.308C487.817 230.73 488.235 229.933 488.244 228.934C488.253 227.913 487.827 227.076 487.308 227.094H443.911Z" fill="#3F3D56"/>
<path d="M457.614 213.615C456.107 213.615 456.098 217.234 457.615 217.234H473.59C474.245 217.25 474.784 216.453 474.794 215.454C474.807 214.434 474.258 213.596 473.59 213.615H457.614Z" fill="#4E6E58"/>
<path d="M443.911 241.073C442.75 241.073 442.726 244.692 443.911 244.692H487.308C487.817 244.708 488.235 243.912 488.244 242.912C488.253 241.892 487.827 241.055 487.308 241.073H443.911Z" fill="#3F3D56"/>
<path d="M496.58 195.704H434.695C434.033 195.704 433.399 195.967 432.931 196.435C432.463 196.903 432.2 197.538 432.2 198.2V260.106C432.2 260.768 432.463 261.403 432.931 261.871C433.399 262.339 434.033 262.602 434.695 262.603H496.58C497.242 262.602 497.877 262.339 498.345 261.871C498.813 261.403 499.076 260.768 499.076 260.106V198.2C499.076 197.538 498.813 196.903 498.345 196.435C497.877 195.967 497.242 195.704 496.58 195.704V195.704ZM498.078 260.106C498.077 260.503 497.918 260.884 497.638 261.164C497.357 261.445 496.977 261.603 496.58 261.604H434.695C434.298 261.603 433.918 261.445 433.638 261.164C433.357 260.884 433.199 260.503 433.198 260.106V198.2C433.199 197.803 433.357 197.423 433.638 197.142C433.918 196.862 434.298 196.704 434.695 196.702H496.58C496.977 196.704 497.357 196.862 497.638 197.142C497.918 197.423 498.077 197.803 498.078 198.2V260.106Z" fill="#3F3D56"/>
<path d="M411.115 146.564L416.135 144.053L411.951 132.753L410.849 127.055C410.706 126.314 410.371 125.625 409.877 125.054C409.384 124.484 408.75 124.053 408.038 123.805C407.326 123.557 406.562 123.5 405.821 123.639C405.08 123.779 404.389 124.111 403.817 124.602V124.602C402.969 125.329 402.436 126.358 402.331 127.47C402.227 128.583 402.559 129.693 403.256 130.565L407.349 135.683L411.115 146.564Z" fill="#A0616A"/>
<path d="M409.439 145.309L410.365 148.208L414.521 161.232C414.928 162.509 415.694 163.641 416.728 164.493C417.762 165.345 419.02 165.88 420.351 166.035C421.682 166.19 423.029 165.957 424.23 165.365C425.432 164.773 426.438 163.846 427.126 162.697L440.597 139.601C440.813 139.241 440.997 138.863 441.147 138.471C441.798 136.762 441.766 134.868 441.057 133.182C440.347 131.496 439.016 130.148 437.34 129.419C435.663 128.689 433.77 128.634 432.053 129.264C430.337 129.895 428.93 131.163 428.124 132.804L419.899 150.332L416.136 141.962L409.439 145.309Z" fill="#E6E6E6"/>
<path d="M411.379 229.438L420.583 230.275L425.604 193.864C442.153 196.649 457.765 197.541 471.27 194.172C472.411 193.891 473.482 193.378 474.415 192.663C475.348 191.949 476.124 191.049 476.693 190.021C477.262 188.992 477.612 187.857 477.722 186.686C477.831 185.516 477.698 184.336 477.33 183.219C475.714 178.394 472.866 173.223 469.533 167.916L447.359 175.868L446.522 179.216L422.871 176.221C421.677 176.07 420.464 176.169 419.31 176.512C418.156 176.854 417.086 177.434 416.167 178.212C415.249 178.991 414.503 179.953 413.976 181.035C413.449 182.118 413.153 183.299 413.107 184.502L411.379 229.438Z" fill="#2F2E41"/>
<path d="M401.355 236.493C401.267 235.87 401.358 235.235 401.619 234.663C401.88 234.09 402.3 233.605 402.828 233.264L412.276 228.625L419.4 229.525L421.082 235.558C421.153 235.988 421.136 236.428 421.032 236.851C420.928 237.274 420.739 237.671 420.476 238.019C420.213 238.366 419.883 238.657 419.504 238.872C419.126 239.088 418.707 239.224 418.274 239.273L404.982 239.302C404.131 239.398 403.276 239.158 402.599 238.634C401.922 238.109 401.476 237.341 401.355 236.493V236.493Z" fill="#2F2E41"/>
<path d="M409.054 224.783L418.258 225.62L423.278 189.209C439.828 191.994 455.44 192.886 468.945 189.517C470.086 189.236 471.156 188.722 472.09 188.008C473.023 187.293 473.798 186.394 474.367 185.365C474.937 184.337 475.287 183.201 475.397 182.031C475.506 180.861 475.373 179.68 475.005 178.564C473.388 173.739 470.541 168.568 467.208 163.261L445.034 171.212L444.197 174.561L420.546 171.566C419.352 171.414 418.139 171.513 416.985 171.856C415.831 172.199 414.76 172.778 413.842 173.557C412.924 174.336 412.178 175.297 411.651 176.38C411.124 177.463 410.828 178.644 410.781 179.847L409.054 224.783Z" fill="#2F2E41"/>
<path d="M399.03 231.838C398.941 231.215 399.033 230.58 399.294 230.007C399.555 229.435 399.975 228.95 400.503 228.608L409.951 223.97L417.075 224.87L418.757 230.903C418.828 231.333 418.811 231.772 418.707 232.195C418.603 232.618 418.413 233.016 418.151 233.363C417.888 233.711 417.557 234.001 417.179 234.217C416.8 234.433 416.382 234.569 415.949 234.618L402.657 234.647C401.806 234.743 400.951 234.503 400.274 233.978C399.597 233.454 399.15 232.686 399.03 231.838Z" fill="#2F2E41"/>
<path d="M425.789 125.176C432.027 125.176 437.085 120.116 437.085 113.876C437.085 107.635 432.027 102.576 425.789 102.576C419.55 102.576 414.493 107.635 414.493 113.876C414.493 120.116 419.55 125.176 425.789 125.176Z" fill="#A0616A"/>
<path d="M426.207 136.894L439.176 135.22L434.156 119.735H421.604L426.207 136.894Z" fill="#A0616A"/>
<path d="M422.677 152.508C423.335 154.336 424.289 156.043 425.5 157.561C427.227 159.681 429.302 161.491 431.635 162.915C432.042 163.179 432.464 163.431 432.9 163.679L435.392 165.803L444.196 173.303L468.462 164.097C463.11 152.199 456.432 142.794 448.78 135.218C447.191 132.886 444.924 131.096 442.287 130.092C439.649 129.088 436.767 128.916 434.029 129.6L424.951 131.871C421.721 139.495 420.521 146.506 422.677 152.508Z" fill="#E6E6E6"/>
<path d="M402.911 119.948C402.769 119.808 402.584 119.721 402.386 119.702C402.188 119.682 401.989 119.731 401.823 119.841C401.601 120.075 394.334 124.383 394.79 124.81C394.776 124.94 394.792 125.071 394.835 125.193C394.879 125.316 394.95 125.428 395.042 125.519L411.932 142.342C412.014 142.423 412.112 142.488 412.219 142.532C412.326 142.576 412.441 142.597 412.557 142.596C412.897 143.031 418.432 136.72 418.712 136.599C418.872 136.433 418.96 136.21 418.956 135.979C418.953 135.748 418.859 135.528 418.694 135.367L402.911 119.948Z" fill="#3F3D56"/>
<path d="M396.49 124.631L397.177 124.192C397.109 124.321 397.085 124.47 397.11 124.614C397.135 124.758 397.207 124.89 397.315 124.988C397.423 125.087 397.561 125.147 397.707 125.158C397.852 125.17 397.998 125.133 398.12 125.052L402.568 121.994C402.667 121.923 402.745 121.827 402.793 121.714C402.841 121.602 402.857 121.479 402.839 121.358C402.821 121.238 402.77 121.124 402.692 121.031C402.613 120.938 402.51 120.868 402.395 120.83C402.571 120.77 402.855 120.412 403.046 120.637L418.009 135.346C418.542 135.606 412.572 140.78 412.569 140.984C412.123 141.48 396.776 125.012 396.449 125C396.424 124.975 396.405 124.944 396.393 124.911C396.382 124.877 396.377 124.841 396.381 124.806C396.385 124.77 396.397 124.736 396.416 124.706C396.435 124.676 396.46 124.65 396.49 124.631V124.631Z" fill="white"/>
<path d="M413.759 132.098L409.169 136.427L398.251 125.637L403.792 122.029L413.759 132.098Z" fill="#4E6E58"/>
<path d="M398.676 128.3C398.937 128.109 397.771 127.26 397.721 127.12C397.691 127.091 397.651 127.075 397.609 127.075C397.567 127.075 397.527 127.091 397.497 127.12C397.236 127.311 398.401 128.16 398.451 128.3C398.481 128.329 398.522 128.345 398.564 128.345C398.605 128.345 398.646 128.329 398.676 128.3V128.3Z" fill="#E6E6E6"/>
<path d="M400.284 129.684C400.141 129.631 399.299 128.471 399.105 128.729C398.844 128.92 400.009 129.769 400.06 129.909C400.203 130.056 400.432 129.828 400.284 129.684Z" fill="#E6E6E6"/>
<path d="M412.581 135.814C412.56 137.206 414.746 137.206 414.725 135.814C414.745 134.423 412.56 134.422 412.581 135.814Z" fill="#4E6E58"/>
<path opacity="0.2" d="M425.5 157.561C427.227 159.681 429.302 161.491 431.636 162.915C432.042 163.179 432.464 163.431 432.9 163.679L435.392 165.803C440.338 159.301 440.059 139.544 440.059 139.544L432.532 140.297L425.5 157.561Z" fill="black"/>
<path d="M410.727 152.379L415.747 149.868L411.564 138.568L410.461 132.869C410.318 132.129 409.983 131.439 409.49 130.869C408.996 130.299 408.362 129.868 407.65 129.62C406.939 129.371 406.174 129.314 405.433 129.454C404.692 129.594 404.001 129.926 403.429 130.417V130.417C402.581 131.144 402.048 132.172 401.944 133.285C401.839 134.397 402.171 135.507 402.869 136.38L406.962 141.498L410.727 152.379Z" fill="#A0616A"/>
<path d="M415.748 147.775L409.054 151.124L414.134 167.046C414.499 168.19 415.153 169.22 416.032 170.036C416.912 170.852 417.987 171.427 419.155 171.705V171.705C420.594 172.048 422.105 171.923 423.468 171.349C424.832 170.775 425.978 169.781 426.739 168.512L440.209 145.415C441.164 143.823 441.459 141.922 441.031 140.116C440.602 138.31 439.485 136.743 437.918 135.75V135.75C437.074 135.216 436.128 134.865 435.141 134.721C434.154 134.577 433.147 134.642 432.186 134.913C431.226 135.184 430.333 135.654 429.566 136.292C428.799 136.931 428.175 137.724 427.735 138.62L419.513 156.146L415.748 147.775Z" fill="#E6E6E6"/>
<path d="M421.537 109.474C420.616 110.242 419.577 110.856 418.46 111.291C417.9 111.504 417.299 111.592 416.701 111.549C416.103 111.506 415.521 111.333 414.997 111.042C414.422 110.629 413.969 110.069 413.685 109.421C413.401 108.772 413.296 108.06 413.381 107.357C413.572 105.951 414.137 104.622 415.016 103.508C416.533 101.398 418.526 99.6775 420.834 98.4857C423.143 97.294 425.7 96.6652 428.297 96.6509C430.895 96.6365 433.459 97.2369 435.78 98.4031C438.101 99.5693 440.114 101.268 441.653 103.361C442.775 104.762 443.465 106.46 443.639 108.247C443.801 111.386 441.653 114.317 441.883 117.452C442.077 120.103 443.98 122.375 446.233 123.784C448.486 125.194 451.09 125.909 453.61 126.756C456.129 127.602 458.677 128.647 460.542 130.542C462.406 132.436 463.435 135.376 462.411 137.83C461.57 139.846 459.572 141.128 457.568 141.996C452.194 144.298 446.158 144.525 440.627 142.632C438.588 141.925 436.361 140.51 436.33 138.351C436.317 137.415 436.738 136.535 436.991 135.633C437.244 134.731 437.292 133.655 436.657 132.966C435.869 132.111 434.414 132.308 433.473 132.989C432.532 133.671 431.921 134.705 431.144 135.569C429.67 137.21 427.435 138.259 425.251 137.95C423.067 137.641 421.093 135.78 421.003 133.575C420.848 129.788 425.591 127.416 426.107 123.661C426.451 121.153 424.819 118.859 423.404 116.759C421.99 114.66 420.674 112.03 421.665 109.7" fill="#2F2E41"/>
<path d="M264.127 230.204H77.7416C76.8265 230.203 75.9492 229.839 75.3022 229.191C74.6551 228.544 74.2911 227.666 74.29 226.751V67.3129C74.2911 66.3975 74.6551 65.5199 75.3022 64.8726C75.9492 64.2253 76.8265 63.8612 77.7416 63.8601H264.127C265.042 63.8612 265.92 64.2253 266.567 64.8726C267.214 65.5199 267.578 66.3975 267.579 67.3129V226.751C267.578 227.666 267.214 228.544 266.567 229.191C265.92 229.839 265.042 230.203 264.127 230.204V230.204ZM77.7416 65.2412C77.1926 65.2418 76.6662 65.4603 76.2779 65.8486C75.8897 66.237 75.6713 66.7636 75.6707 67.3129V226.751C75.6713 227.3 75.8897 227.827 76.2779 228.215C76.6662 228.604 77.1926 228.822 77.7416 228.823H264.127C264.676 228.822 265.203 228.604 265.591 228.215C265.979 227.827 266.198 227.3 266.198 226.751V67.3129C266.198 66.7636 265.979 66.237 265.591 65.8486C265.203 65.4603 264.676 65.2418 264.127 65.2412H77.7416Z" fill="#3F3D56"/>
<path d="M106.702 215.916C114.468 215.916 120.762 209.619 120.762 201.852C120.762 194.084 114.468 187.787 106.702 187.787C98.9374 187.787 92.6426 194.084 92.6426 201.852C92.6426 209.619 98.9374 215.916 106.702 215.916Z" fill="#E6E6E6"/>
<path d="M139.174 192.475C138.553 192.476 137.958 192.723 137.519 193.163C137.08 193.602 136.834 194.198 136.834 194.819C136.834 195.44 137.08 196.036 137.519 196.476C137.958 196.915 138.553 197.162 139.174 197.163H249.645C250.266 197.163 250.862 196.916 251.302 196.477C251.741 196.037 251.988 195.441 251.988 194.819C251.988 194.198 251.741 193.601 251.302 193.162C250.862 192.722 250.266 192.475 249.645 192.475H139.174Z" fill="#E6E6E6"/>
<path d="M139.174 206.54C138.552 206.54 137.956 206.787 137.517 207.226C137.077 207.666 136.831 208.262 136.831 208.884C136.831 209.505 137.077 210.102 137.517 210.541C137.956 210.981 138.552 211.228 139.174 211.228H186.71C187.018 211.228 187.323 211.168 187.608 211.05C187.892 210.933 188.151 210.76 188.369 210.542C188.587 210.325 188.76 210.066 188.878 209.782C188.996 209.497 189.056 209.192 189.056 208.884C189.056 208.576 188.996 208.27 188.878 207.986C188.76 207.701 188.587 207.443 188.369 207.225C188.151 207.007 187.892 206.835 187.608 206.717C187.323 206.599 187.018 206.539 186.71 206.54H139.174Z" fill="#E6E6E6"/>
<path d="M308.41 174.594H122.025C121.11 174.593 120.232 174.228 119.585 173.581C118.938 172.934 118.574 172.056 118.573 171.141V89.3175C118.574 88.4021 118.938 87.5245 119.585 86.8772C120.232 86.2299 121.11 85.8658 122.025 85.8647H308.41C309.326 85.8658 310.203 86.2299 310.85 86.8772C311.497 87.5245 311.861 88.4021 311.862 89.3175V171.141C311.861 172.056 311.497 172.934 310.85 173.581C310.203 174.228 309.326 174.593 308.41 174.594Z" fill="#DD949F"/>
<path d="M159.982 114.385C159.361 114.386 158.766 114.633 158.327 115.073C157.889 115.512 157.642 116.108 157.642 116.729C157.642 117.35 157.889 117.946 158.327 118.385C158.766 118.825 159.361 119.072 159.982 119.073H270.453C271.074 119.072 271.669 118.825 272.108 118.385C272.546 117.946 272.793 117.35 272.793 116.729C272.793 116.108 272.546 115.512 272.108 115.073C271.669 114.633 271.074 114.386 270.453 114.385H159.982Z" fill="white"/>
<path d="M159.982 127.968C159.361 127.968 158.766 128.216 158.327 128.655C157.889 129.095 157.642 129.691 157.642 130.312C157.642 130.933 157.889 131.528 158.327 131.968C158.766 132.407 159.361 132.655 159.982 132.656H270.453C271.074 132.655 271.669 132.407 272.108 131.968C272.546 131.528 272.793 130.933 272.793 130.312C272.793 129.691 272.546 129.095 272.108 128.655C271.669 128.216 271.074 127.968 270.453 127.968H159.982Z" fill="white"/>
<path d="M159.982 141.385C159.361 141.386 158.766 141.634 158.327 142.073C157.889 142.513 157.642 143.108 157.642 143.729C157.642 144.351 157.889 144.946 158.327 145.386C158.766 145.825 159.361 146.073 159.982 146.074H207.518C207.826 146.074 208.131 146.014 208.416 145.896C208.7 145.779 208.959 145.606 209.177 145.388C209.395 145.171 209.568 144.912 209.686 144.627C209.804 144.343 209.865 144.038 209.865 143.729C209.865 143.421 209.804 143.116 209.686 142.832C209.568 142.547 209.395 142.288 209.177 142.071C208.959 141.853 208.7 141.68 208.416 141.563C208.131 141.445 207.826 141.385 207.518 141.385H159.982Z" fill="white"/>
<path d="M308.753 183.411C316.518 183.411 322.813 177.114 322.813 169.346C322.813 161.578 316.518 155.281 308.753 155.281C300.988 155.281 294.693 161.578 294.693 169.346C294.693 177.114 300.988 183.411 308.753 183.411Z" fill="#3F3D56"/>
<path d="M307.581 175.565L303.119 169.826L305.714 167.806L307.827 170.524L314.965 162.986L317.352 165.249L307.581 175.565Z" fill="white"/>
<path d="M285.551 24.7875L262.704 30.0176L253.051 11.8056L272.587 4.17615L285.551 24.7875Z" fill="#2F2E41"/>
<path d="M304.536 154.136L313.098 146.353L294.632 104.686L278.497 84.8179L304.859 96.2322L307.602 125.295L320.711 129.807L319.012 93.5194C318.906 91.2564 318.152 89.0715 316.841 87.2249C315.529 85.3782 313.714 83.9475 311.613 83.103L289.984 74.4123L286.112 58.1519L263.533 57.8286C256.517 70.0413 253.381 80.7897 258.445 88.4452L281.939 111.366L304.536 154.136Z" fill="#2F2E41"/>
<path d="M308.526 148.803C308.526 148.803 309.743 145.165 311.651 146.003C313.559 146.84 318.903 151.083 318.903 151.083C318.903 151.083 327.829 152.346 322.238 155.581C316.647 158.817 314.46 158.616 314.282 158.158C314.104 157.7 312.653 156.684 312.653 156.684L310.544 158.035L306.985 158.369C306.985 158.369 302.325 150.472 303.824 150.262C305.324 150.053 308.604 150.355 308.526 148.803Z" fill="#2F2E41"/>
<path d="M314.157 126.491C314.157 126.491 317.869 125.526 318.209 127.582C318.548 129.639 317.91 136.433 317.91 136.433C317.91 136.433 321.723 144.605 315.962 141.684C310.2 138.763 309.176 136.82 309.462 136.421C309.748 136.021 309.807 134.251 309.807 134.251L307.525 133.22L305.303 130.418C305.303 130.418 309.376 122.203 310.369 123.346C311.363 124.489 312.9 127.403 314.157 126.491Z" fill="#2F2E41"/>
<path d="M266.252 23.0861C270.822 23.0861 274.528 19.3798 274.528 14.8078C274.528 10.2359 270.822 6.52954 266.252 6.52954C261.682 6.52954 257.977 10.2359 257.977 14.8078C257.977 19.3798 261.682 23.0861 266.252 23.0861Z" fill="#FFB9B9"/>
<path d="M265.291 42.0866L285.379 39.1856C282.381 33.756 279.289 28.8075 275.134 29.3608C271.437 26.7727 271.224 22.6122 272.159 17.9335L262.104 20.6223C262.989 23.5064 262.646 26.0389 260.29 27.9942C263.583 32.6306 265.713 37.3107 265.291 42.0866Z" fill="#FFB9B9"/>
<path d="M263.773 59.7097C270.911 69.0067 278.231 72.68 286.102 59.3902L286.75 53.4601C291.801 47.0888 290.322 41.5833 284.163 36.6983L281.193 29.7121L276.717 28.9902C277.306 29.6714 277.681 30.5121 277.793 31.406C277.905 32.3 277.749 33.2072 277.346 34.0129C276.943 34.8187 276.311 35.4869 275.528 35.9331C274.746 36.3794 273.849 36.5837 272.95 36.5202L271.332 36.4059C270.732 36.3635 270.147 36.2028 269.61 35.9331C269.072 35.6633 268.593 35.2899 268.201 34.8342L261.325 26.8501L258.428 27.6248C258.099 27.7126 257.806 27.9007 257.59 28.1629C257.374 28.4251 257.245 28.7483 257.221 29.0875L256.281 42.393C260.417 46.9758 262.796 52.8338 263.773 59.7097Z" fill="#CAC9E4"/>
<path d="M260.577 54.0453L244.767 50.834L255.268 41.0604L251.271 33.8307L234.299 51.8886C234.008 52.2203 233.813 52.6256 233.736 53.0605C233.659 53.4954 233.702 53.9431 233.862 54.3549C234.021 54.7667 234.291 55.1269 234.641 55.3962C234.991 55.6655 235.408 55.8336 235.847 55.8822L258.832 58.4286L259.775 62.5896C259.9 63.1431 260.157 63.6582 260.524 64.0915C260.89 64.5247 261.355 64.8634 261.88 65.0788C262.405 65.2942 262.974 65.38 263.539 65.329C264.104 65.278 264.649 65.0917 265.127 64.7857V64.7857C265.569 64.5026 265.943 64.1244 266.221 63.6786C266.499 63.2328 266.674 62.7308 266.733 62.2088C266.793 61.6869 266.735 61.1582 266.565 60.6613C266.395 60.1643 266.116 59.7116 265.749 59.336L260.577 54.0453Z" fill="#FFB9B9"/>
<path d="M285.157 79.7512L283.059 85.2169C282.854 85.7509 282.764 86.3223 282.796 86.8934C282.829 87.4645 282.981 88.0222 283.245 88.5298C283.509 89.0374 283.877 89.4833 284.326 89.8379C284.774 90.1926 285.293 90.448 285.848 90.5872V90.5872C286.497 90.7504 287.178 90.7493 287.827 90.5841C288.476 90.419 289.075 90.0948 289.568 89.641C290.061 89.1871 290.433 88.6177 290.652 87.984C290.87 87.3503 290.928 86.6723 290.819 86.0109L289.931 80.6038L292.85 58.9787L290.241 44.6935L284.292 46.521L286.268 59.8186L285.157 79.7512Z" fill="#FFB9B9"/>
<path d="M282.913 48.0464L291.907 44.5371L286.894 33.5482C286.358 32.3741 285.514 31.368 284.45 30.6376C283.386 29.9073 282.144 29.4801 280.856 29.4021L278.55 29.2622L282.913 48.0464Z" fill="#CAC9E4"/>
<path d="M253.283 43.5627L262.873 40.3148L259.492 28.807C259.383 28.4344 259.144 28.1131 258.819 27.9006C258.494 27.6881 258.104 27.5984 257.719 27.6475V27.6475C257.393 27.6891 257.088 27.8279 256.842 28.0459L247.045 36.7404C248.92 39.8269 250.915 39.9044 253.283 43.5627Z" fill="#CAC9E4"/>
<path d="M271.75 1.3679C271.75 1.3679 276.811 2.32021 277.981 8.63444C278.164 9.69927 278.198 10.7845 278.081 11.8586C277.964 13.074 278.133 15.6411 280.771 18.6638C282.493 20.6244 284.097 22.685 285.575 24.8351L280.287 26.2434L277.924 17.4785C276.778 13.2291 275.013 9.1716 272.686 5.43649L272.638 5.35851C272.638 5.35851 270.881 10.0533 266.173 10.6969L267.625 8.78512C267.625 8.78512 262.122 11.9676 259.004 12.9398C258.648 13.0508 258.329 13.2568 258.082 13.5356C257.834 13.8145 257.667 14.1556 257.599 14.5222C257.531 14.8888 257.565 15.267 257.696 15.6161C257.827 15.9652 258.05 16.272 258.343 16.5033C258.365 16.5207 258.387 16.5381 258.41 16.5555C260.703 18.298 265.382 22.4557 263.534 26.4777C261.685 30.4997 263.841 31.233 263.841 31.233L259.866 29.7204L258.047 28.9411L258.231 30.2866L249.35 30.4727C249.35 30.4727 246.95 30.4582 251.213 24.0501C251.213 24.0501 252.241 21.6473 251.397 19.8117C250.719 18.4215 250.382 16.8901 250.413 15.3437C250.681 8.88321 253.402 -4.26015 271.75 1.3679Z" fill="#2F2E41"/>
</g>
<defs>
<clipPath id="clip0">
<rect width="540" height="265.018" fill="white"/>
</clipPath>
</defs>
</svg>
